<?xml version="1.0" encoding="UTF-8" standalone="no"?>
<!-- Created with Inkscape (http://www.inkscape.org/) -->

<svg
   version="1.1"
   id="svg1"
   width="446"
   height="448"
   viewBox="0 0 446 448"
   sodipodi:docname="contra.svg"
   inkscape:version="1.4.3 (0d15f75, 2025-12-25)"
   xmlns:inkscape="http://www.inkscape.org/namespaces/inkscape"
   xmlns:sodipodi="http://sodipodi.sourceforge.net/DTD/sodipodi-0.dtd"
   xmlns="http://www.w3.org/2000/svg"
   xmlns:svg="http://www.w3.org/2000/svg">
  <defs
     id="defs1" />
  <sodipodi:namedview
     id="namedview1"
     pagecolor="#ffffff"
     bordercolor="#000000"
     borderopacity="0.25"
     inkscape:showpageshadow="2"
     inkscape:pageopacity="0.0"
     inkscape:pagecheckerboard="0"
     inkscape:deskcolor="#d1d1d1"
     inkscape:zoom="1.7254464"
     inkscape:cx="223.13066"
     inkscape:cy="224"
     inkscape:window-width="1920"
     inkscape:window-height="991"
     inkscape:window-x="-9"
     inkscape:window-y="-9"
     inkscape:window-maximized="1"
     inkscape:current-layer="g1" />
  <g
     inkscape:groupmode="layer"
     inkscape:label="Image"
     id="g1">
    <path
       style="fill:#000000;fill-opacity:1"
       d="m 200.5,446.0608 c -1.48606,-0.60365 -3.00538,-3.99221 -5.91245,-13.18661 C 166.9318,345.40536 100.8937,279.55577 14.078862,252.88078 7.2472359,250.78167 1.2916266,248.48727 0.84417464,247.78211 -0.40189937,245.81836 -0.15155093,239.58829 1.25,237.6829 2.4144572,236.09983 9.5829467,236.00121 106,236.24177 l 103.5,0.25823 0.25821,104 c 0.24056,96.88715 0.142,104.08549 -1.44113,105.25 -1.90933,1.40446 -4.83808,1.52091 -7.81708,0.3108 z m 37.18292,-0.3108 c -1.58313,-1.16451 -1.68169,-8.36285 -1.44113,-105.25 L 236.5,236.5 340,236.24177 c 96.41705,-0.24056 103.58554,-0.14194 104.75,1.44113 1.41314,1.92115 1.6388,7.15584 0.39314,9.11974 -0.45443,0.71645 -5.35814,2.61617 -10.89713,4.2216 -53.85415,15.60915 -104.23558,50.89559 -139.32564,97.5817 -18.56728,24.70312 -36.33896,60.44809 -43.09443,86.67774 -1.22935,4.7732 -2.93987,8.94967 -4.08182,9.96632 -2.28797,2.03692 -7.6121,2.30151 -10.0612,0.5 z M 1.0376696,209.07039 C -0.37670133,206.42761 -0.26861921,201.71826 1.25,199.81873 1.9375,198.95878 4.7196565,197.72061 7.43257,197.06723 17.501389,194.64224 37.974802,186.63555 53.5,179.05128 98.701298,156.96985 136.06762,123.35738 163.04978,80.506947 171.50604,67.077544 179.95991,50.748182 185.05605,38 189.29743,27.390007 196,6.8378734 196,4.4424745 c 0,-3.91483562 10.17179,-6.3502623 12.88222,-3.0843854 0.82385,0.9926714 1.0586,29.3120329 0.87245,105.2500009 L 209.5,210.5 105.78767,210.75464 C 4.0525706,211.00443 2.0555564,210.97233 1.0376696,209.07039 Z M 236.66667,210.33333 C 236.3,209.96667 236,163.03167 236,106.03333 236,26.762963 236.28211,2.1178943 237.2,1.2 237.86,0.54 240.09963,0 242.17695,0 c 4.5568,0 5.99322,1.8363338 8.21334,10.5 6.24562,24.37264 21.93537,56.530654 40.00743,82 19.41204,27.35781 46.80004,53.05618 76.85018,72.10912 18.9349,12.00545 50.10714,25.80979 69.7521,30.88908 3.575,0.92433 7.0625,2.14547 7.75,2.71365 1.51296,1.25035 1.64995,8.17232 0.21482,10.85389 C 443.95162,210.95892 441.73588,211 340.63148,211 283.8175,211 237.03333,210.7 236.66667,210.33333 Z"
       id="path1" />
  </g>
</svg>
