<?xml version="1.0" encoding="UTF-8" standalone="no"?>
<!-- Created with Inkscape (http://www.inkscape.org/) -->

<svg
   version="1.1"
   id="svg1"
   width="1408"
   height="768"
   viewBox="0 0 1408 768"
   sodipodi:docname="logo_large.svg"
   inkscape:version="1.4.3 (0d15f75, 2025-12-25)"
   xmlns:inkscape="http://www.inkscape.org/namespaces/inkscape"
   xmlns:sodipodi="http://sodipodi.sourceforge.net/DTD/sodipodi-0.dtd"
   xmlns="http://www.w3.org/2000/svg"
   xmlns:svg="http://www.w3.org/2000/svg">
  <defs
     id="defs1" />
  <sodipodi:namedview
     id="namedview1"
     pagecolor="#ffffff"
     bordercolor="#000000"
     borderopacity="0.25"
     inkscape:showpageshadow="2"
     inkscape:pageopacity="0.0"
     inkscape:pagecheckerboard="0"
     inkscape:deskcolor="#d1d1d1"
     inkscape:zoom="1.0065104"
     inkscape:cx="704.41397"
     inkscape:cy="384"
     inkscape:window-width="1920"
     inkscape:window-height="991"
     inkscape:window-x="-9"
     inkscape:window-y="-9"
     inkscape:window-maximized="1"
     inkscape:current-layer="g1" />
  <g
     inkscape:groupmode="layer"
     inkscape:label="Image"
     id="g1">
    <path
       style="fill:#000000"
       d="m 194.31537,512.99302 c -4.60637,-1.85595 -5.87519,-9.46191 -2.15639,-12.9265 1.18743,-1.10627 4.3093,-2.72562 6.93748,-3.59856 6.28532,-2.08765 11.29387,-7.67126 13.61359,-15.17662 C 214.37444,475.90623 214.5,469.11682 214.5,384.5 c 0,-96.98206 -0.0742,-98.60119 -4.84589,-105.68832 -1.47703,-2.19378 -4.90925,-4.66194 -10.16763,-7.31168 -9.48407,-4.77911 -11.88761,-7.88908 -9.45625,-12.23554 2.82151,-5.04393 4.57458,-5.35186 28.46977,-5.00085 25.0852,0.3685 28.39454,1.13993 39.28616,9.15788 7.07684,5.20968 9.53501,8.49964 25.46255,34.07851 6.84952,11 20.45563,32.825 30.2358,48.5 22.87654,36.66499 48.10833,77.6372 53.10327,86.23084 2.15172,3.70197 4.29023,6.73947 4.75223,6.75 0.46201,0.0105 0.63615,-32.04334 0.38699,-71.23084 -0.38846,-61.09485 -0.68422,-72.23747 -2.07508,-78.17823 -2.45836,-10.50039 -5.08663,-13.73302 -14.99157,-18.43885 -4.61452,-2.19236 -8.67585,-4.73094 -9.02519,-5.6413 -1.24737,-3.25059 -0.60825,-7.20602 1.46823,-9.08663 1.95222,-1.76808 4.23401,-1.92617 31.75,-2.19969 16.30563,-0.16208 30.64666,-0.0441 31.86893,0.26211 3.23632,0.81086 6.27768,4.50069 6.27768,7.61619 0,3.6108 -3.22725,6.51332 -10.5,9.44352 -3.34748,1.3487 -7.40448,3.93522 -9.17692,5.85071 -7.02914,7.59642 -7.50392,14.66359 -7.13431,106.19418 l 0.31123,77.072 3,5.85101 c 2.34253,4.56872 3.96589,6.36098 7.40728,8.17799 8.88359,4.69042 19.34044,2.20597 24.90239,-5.91656 1.60304,-2.34105 5.20615,-9.5851 8.00691,-16.09789 6.42412,-14.93847 9.72775,-20.06754 17.77277,-27.59327 10.72098,-10.02894 23.57394,-15.17287 46.41065,-18.57416 19.1675,-2.8548 24.37104,-4.85374 28.10226,-10.79546 2.69202,-4.28686 2.19431,-7.52584 -4.51484,-29.38179 C 518.57983,356.51625 512.88133,337.7 508.92409,324.5 c -3.95725,-13.2 -7.54159,-24.65572 -7.96522,-25.45715 -0.53403,-1.0103 -1.13512,-0.0903 -1.96015,3 -1.67568,6.27663 -16.18456,54.40918 -21.99191,72.95715 -2.66917,8.525 -5.81,18.77364 -6.97964,22.77475 l -2.1266,7.27475 -6.56919,3.10379 c -3.61305,1.70709 -9.0636,5.13552 -12.11234,7.61875 -3.04873,2.48323 -5.27015,3.80354 -4.93648,2.93401 0.33367,-0.86953 1.11928,-3.5216 1.74581,-5.8935 1.29782,-4.91328 22.60633,-74.4419 29.97671,-97.81255 2.68852,-8.525 6.9736,-22.25 9.5224,-30.5 2.5488,-8.25 5.74152,-17.025 7.09495,-19.5 3.55759,-6.50576 9.35324,-10.29829 16.53102,-10.81748 8.30599,-0.6008 11.96592,0.37184 16.72381,4.44441 5.74643,4.91873 7.85592,9.55286 15.41929,33.87307 8.37011,26.91431 46.29878,147.19526 52.81197,167.47948 2.73372,8.51372 6.13485,17.51372 7.55805,20 4.87872,8.52295 14.79916,17.02052 19.87052,17.02052 2.29325,0 7.46291,5.45582 7.46291,7.87602 0,3.62725 -2.20936,7.00131 -5.28706,8.0742 -1.90218,0.66311 -17.27195,1.04978 -41.7273,1.04978 -37.65366,0 -38.78822,-0.0569 -41.35078,-2.07258 -2.00081,-1.57384 -2.63118,-2.95751 -2.61955,-5.75 0.0205,-4.92918 0.91748,-6.08847 7.06232,-9.1279 6.55177,-3.2407 9.07472,-6.56423 9.65984,-12.72503 0.5721,-6.02366 -2.31551,-16.98757 -16.35625,-62.10279 l -3.51003,-11.27829 -4.49106,3.95319 c -5.74939,5.06081 -10.44355,6.61911 -29.00276,9.62791 -18.5937,3.01439 -25.4566,5.09365 -32.71552,9.91185 -9.39532,6.23625 -12.98806,11.74133 -18.6625,28.59614 -12.37325,36.75234 -26.92147,51.02383 -51.93085,50.94305 -9.74642,-0.0315 -14.88965,-1.2492 -23.79739,-5.63433 C 360.9138,501.76564 353.18032,492.45829 330.78081,456 298.60017,403.62156 238.64521,309.3928 235.34028,306 c -1.28177,-1.31584 -1.4098,8.56732 -1.04284,80.5 0.35963,70.49434 0.64355,83.02694 2.02354,89.31893 2.76741,12.6179 7.60956,18.73892 16.77644,21.2073 8.8441,2.38147 10.61067,13.13687 2.61552,15.92399 -3.68077,1.28313 -58.22478,1.32115 -61.39757,0.0428 z m 600.43055,-6.01677 C 783.64214,504.17613 772.45943,494.79582 767.10361,483.78926 762.65113,474.63912 761,466.98641 761,455.5 c 0,-23.04693 9.60949,-40.74971 26.70673,-49.19962 6.74108,-3.33162 8.51359,-3.76132 17.05701,-4.13498 C 828.24541,401.1384 840,409.03376 840,425.83302 840,433.25582 837.52372,437 832.61451,437 c -3.77342,0 -7.24932,-3.21516 -10.51063,-9.7222 -2.67703,-5.34126 -7.57931,-10.95518 -11.20266,-12.82888 -3.58791,-1.85538 -11.20093,-1.86241 -14.77603,-0.0137 -9.27123,4.79434 -14.6144,17.36904 -14.4746,34.06474 0.22928,27.38292 12.41809,45.5 30.6115,45.5 9.44251,0 9.73791,-0.36708 9.73791,-12.10093 0,-10.74566 -0.64406,-12.89353 -5.12538,-17.0927 -3.48453,-3.26514 -3.75331,-7.0775 -0.65211,-9.24967 1.74062,-1.21918 5.10129,-1.5567 15.5,-1.5567 11.94416,0 13.47833,0.20084 15.27749,2 1.1,1.1 2,2.63242 2,3.40539 0,1.06454 -3.63784,6.12657 -7.14285,9.93922 -0.0786,0.0855 -0.41606,5.99069 -0.75,13.12273 l -0.60715,12.96734 -5.32624,3.7166 c -7.83038,5.46397 -15.94054,7.97265 -27.17376,8.40556 -5.225,0.20136 -11.18933,-0.0599 -13.25408,-0.58059 z m 90.48423,-0.46052 c -2.89842,-0.8167 -6.51258,-2.12754 -8.03148,-2.91299 -4.80955,-2.48712 -11.78077,-10.88521 -14.23889,-17.15332 -2.20072,-5.61175 -2.36512,-7.62894 -2.89646,-35.54076 L 859.5,421.31733 l -3.25,-5.22511 c -6.82695,-10.97587 -4.05813,-13.39675 14.78009,-12.92274 11.64302,0.29297 13.29693,0.55179 14.55733,2.27806 1.64097,2.2475 1.11019,4.54119 -2.21289,9.5627 -3.3843,5.11401 -4.37551,12.12233 -4.36694,30.87625 0.0132,28.99785 2.15669,39.08608 9.49362,44.68223 5.26018,4.01214 14.07667,4.54774 20.49879,1.24531 3.63475,-1.86909 5.07684,-3.4677 7.5,-8.31403 l 3,-6 V 450 c 0,-15.125 -0.32733,-28.66283 -0.7274,-30.08406 -0.40008,-1.42124 -2.08758,-4.29561 -3.75,-6.38751 C 909.00183,405.95228 911.9398,403 925.5,403 c 12.97104,0 16.58609,3.13667 11.14857,9.67327 -5.11967,6.15451 -5.11571,6.12836 -5.72895,37.82673 -0.64945,33.56995 -1.11362,36.24839 -7.82186,45.13449 -7.48401,9.91373 -24.22693,14.7248 -37.86761,10.88124 z m 164.51035,0.0781 c -6.9705,-2.53024 -8.2876,-4.53455 -12.257,-18.65245 -5.3868,-19.15913 -9.4468,-24.23055 -18.9835,-23.71281 l -5,0.27144 -0.2998,6.9322 c -0.4646,10.73941 1.1696,18.94608 4.739,23.79975 3.4317,4.66644 3.7924,6.89358 1.4894,9.19662 -1.2813,1.28132 -4.1983,1.57143 -15.8,1.57143 -18.53269,0 -19.76266,-1.12097 -13.09066,-11.93046 l 3.53794,-5.73192 -0.28794,-34.55844 -0.28794,-34.55844 -3.25,-4.52385 c -3.81472,-5.30991 -4.08702,-7.99721 -1.02749,-10.14019 1.81947,-1.27441 5.61869,-1.5567 20.95079,-1.5567 25.2205,0 33.3034,1.90503 41.3851,9.75382 5.5085,5.34977 7.7856,11.27133 7.7856,20.24618 0,11.7991 -4.7866,20.58269 -13.7197,25.17603 l -3.8757,1.99287 2.9871,1.81659 c 4.1082,2.49835 6.9788,6.81873 10.3535,15.58255 4.2598,11.0627 5.7198,13.56433 10.2725,17.6022 4.0703,3.60995 4.1131,3.71672 2.602,6.5 -2.6939,4.96178 -11.5363,7.35086 -18.2232,4.92358 z m -18.7498,-54.44916 c 2.0414,-1.09485 4.4266,-3.65666 5.8189,-6.25 2.0603,-3.83758 2.3085,-5.4308 1.9582,-12.56854 -0.336,-6.84446 -0.8484,-8.8496 -3.1507,-12.3285 C 1030.8995,413.86883 1019.4592,410.54079 1015,415 c -1.8362,1.83617 -2,3.33333 -2,18.27749 0,19.98684 0.3132,20.72251 8.8223,20.72251 3.6508,0 6.9561,-0.66887 9.1684,-1.85534 z m 106.722,54.83846 c -7.3109,-1.31344 -9.9645,-5.57377 -15.2311,-24.45302 -2.2485,-8.06049 -4.7702,-12.75374 -8.5711,-15.95194 -2.6909,-2.26428 -3.9602,-2.62788 -8.2938,-2.3758 L 1100.5,464.5 v 12 c 0,10.65556 0.2475,12.39213 2.209,15.5 5.4873,8.69413 5.5659,8.93147 3.833,11.5762 -1.5594,2.38002 -1.8492,2.4238 -16.042,2.4238 -14.1928,0 -14.4826,-0.0438 -16.042,-2.4238 -1.7329,-2.64473 -1.6543,-2.88207 3.833,-11.5762 2.1673,-3.43391 2.209,-4.14522 2.209,-37.66842 v -34.16843 l -3.25,-4.61081 c -4.1795,-5.92952 -4.3615,-10.17378 -0.5,-11.66093 1.7492,-0.67366 10.3922,-0.91375 23.75,-0.65972 24.9781,0.47502 29.7614,1.71442 37.6028,9.74342 12.3164,12.6109 10.1644,34.76248 -4.2859,44.11614 l -4.6831,3.03136 4.7798,4.68869 c 3.8991,3.82476 5.4803,6.5313 8.5816,14.6887 3.0937,8.13746 4.6271,10.76617 8.2329,14.11356 3.5641,3.30871 4.3666,4.66874 4.1015,6.9511 -0.5661,4.87404 -8.7118,7.92848 -17.1169,6.41846 z m -20.7181,-54.73467 c 5.2482,-2.62578 8.192,-8.72868 8.2178,-17.03627 0.025,-8.18137 -2.1878,-14.10537 -6.7737,-18.13185 -4.9691,-4.36296 -15.2654,-5.35076 -17.6734,-1.69555 -0.4041,0.61337 -0.7416,8.84558 -0.75,18.29379 -0.013,14.29772 0.2482,17.4421 1.5561,18.75 2.1556,2.15556 10.9604,2.05273 15.4232,-0.18012 z m 71.7177,53.7837 c -22.3193,-0.44338 -26.9457,-0.78237 -27.7347,-2.03215 -1.5495,-2.45447 -1.1236,-4.67299 1.4943,-7.78421 1.3595,-1.61571 2.9345,-4.15454 3.5,-5.64183 0.6298,-1.65663 1.0281,-15.67523 1.0281,-36.18872 0,-35.72521 0.01,-35.66328 -5.1414,-42.2701 -2.4665,-3.16485 -2.3463,-5.6601 0.3639,-7.55844 1.888,-1.32242 6.6053,-1.5567 31.345,-1.5567 26.474,0 29.2646,0.15915 30.6845,1.75 1.8124,2.03061 3.2207,6.96607 4.7417,16.61757 0.9152,5.80746 0.8413,7.23534 -0.4788,9.25 -3.06,4.67019 -6.3286,2.79151 -10.8517,-6.23731 -4.6465,-9.27487 -10.8447,-12.28989 -22.8867,-11.13281 -7.4569,0.71652 -7.7765,1.48971 -7.7765,18.81284 v 14.67803 l 3.6045,0.58493 c 1.9825,0.32172 5.02,0.32017 6.75,-0.003 3.3562,-0.62777 7.6455,-3.9037 7.6455,-5.83915 0,-1.65148 3.3425,-4.48067 5.2936,-4.48067 2.9087,0 3.7064,3.61836 3.7064,16.81181 0,10.09509 -0.3195,13.20848 -1.452,14.14836 -2.1117,1.75259 -5.1544,0.40432 -6.5183,-2.88838 C 1203.5964,459.19722 1201.5532,458 1193.961,458 H 1187 v 16.92742 16.92742 l 2.6349,2.07258 c 2.0789,1.63526 4.0696,2.07258 9.4349,2.07258 10.8794,0 15.1022,-2.47216 19.6432,-11.5 3.2559,-6.473 5.1022,-8.5 7.742,-8.5 4.9511,0 5.5026,3.3046 2.9095,17.43297 -1.9812,10.79475 -4.1637,13.68814 -10.069,13.34918 -2.0875,-0.11982 -15.85,-0.45732 -30.5832,-0.75 z M 672.25,505.33772 c -2.44376,-0.98608 -1.26422,-5.87262 2.68688,-11.13104 3.2988,-4.39029 5.56112,-10.13967 13.95827,-35.47309 5.51176,-16.62847 10.71388,-32.91072 11.56027,-36.18276 1.46546,-5.6653 1.44188,-6.13528 -0.49408,-9.8495 -3.60067,-6.90804 -0.69099,-9.95133 9.51442,-9.95133 6.90906,0 11.61211,1.92827 14.14999,5.80157 0.90452,1.38048 7.14393,18.58361 13.86535,38.22919 14.14688,41.34894 14.12372,41.29034 18.66265,47.21924 4.51759,5.90103 4.98907,7.35109 3.21411,9.8852 -1.39791,1.99579 -2.33906,2.1148 -16.72456,2.1148 -10.52257,0 -15.61493,-0.37163 -16.4433,-1.2 -1.90895,-1.90895 -1.40508,-5.40898 1.36668,-9.49339 2.77223,-4.08511 2.7598,-5.47688 -0.136,-15.22809 L 725.92252,475 h -14.88089 -14.8809 l -1.50995,4.75 c -2.98872,9.40187 -3.01196,10.95797 -0.23448,15.69739 5.22251,8.91154 3.57316,10.57797 -10.3663,10.47366 -5.8025,-0.0434 -11.1125,-0.30592 -11.8,-0.58333 z M 722,463.84374 C 722,462.5374 710.75657,427.88473 710.45406,428.25873 709.84552,429.01108 700,462.14599 700,463.44166 700,464.75834 701.70585,465 711,465 c 7.65771,0 11,-0.35132 11,-1.15626 z m 224.57143,40.58483 c -2.31562,-2.31561 -1.94487,-4.52213 1.67857,-9.99017 l 3.25,-4.90449 0.3024,-32.01695 c 0.16632,-17.60933 0.0431,-33.42763 -0.27371,-35.15177 -0.31685,-1.72415 -1.90724,-5.09915 -3.5342,-7.5 C 941.58893,405.41266 944.4368,403 962,403 c 9.74478,0 13.05246,0.34844 14.77749,1.5567 3.05282,2.13828 2.78528,5.28405 -0.87239,10.2577 -4.486,6.10002 -5.13101,13.30348 -4.19273,46.82411 l 0.78763,28.1385 3.25,4.52497 c 3.69625,5.14628 4.18732,9.12601 1.31574,10.66284 -1.06384,0.56935 -8.0067,1.03518 -15.42857,1.03518 -10.93422,0 -13.79244,-0.29813 -15.06574,-1.57143 z M 850.17629,380.93 c -10.3847,-2.04363 -21.10954,-9.45901 -26.99431,-18.66443 -4.57239,-7.15249 -8.2434,-19.20906 -8.89063,-29.19913 -1.87714,-28.97385 14.44411,-53.19631 38.52348,-57.17294 19.24206,-3.17775 36.90475,6.02781 40.49694,21.1065 0.88594,3.71884 -0.91481,10.25837 -3.3732,12.25 -2.98072,2.41478 -9.01154,2.26232 -11.75894,-0.29728 -1.20863,-1.126 -3.77101,-5.36313 -5.69418,-9.41583 -5.35886,-11.29273 -11.77195,-15.26566 -20.44651,-12.6667 -10.95564,3.28239 -17.28203,15.5398 -17.34692,33.60971 -0.0703,19.58545 7.52741,35.57518 19.7052,41.47035 10.59221,5.12759 24.40559,0.9113 31.25322,-9.53951 2.65513,-4.05223 4.96722,-4.79308 7.39179,-2.36851 2.35905,2.35905 2.0518,5.81978 -1.06165,11.95777 -7.38498,14.55905 -24.54032,22.32741 -41.80429,18.93 z M 937,380.63759 c -19.1111,-4.1516 -32.33336,-20.91015 -34.95714,-44.30639 -2.78504,-24.83415 8.43303,-48.71035 26.76547,-56.96683 16.90849,-7.61517 36.22069,-4.46579 48.61437,7.92789 9.85827,9.85828 14.81038,23.24465 14.8743,40.20774 0.136,36.09345 -24.55126,59.81664 -55.297,53.13759 z m 18.76847,-11.18532 c 12.1385,-5.07178 17.36469,-21.7278 14.1605,-45.12991 -4.25791,-31.0981 -23.76066,-47.18957 -38.56489,-31.81939 -6.31045,6.55169 -7.87213,12.23924 -7.82468,28.49703 0.0449,15.39045 1.50158,22.45556 6.9069,33.5 3.95149,8.07389 8.65766,13.06301 14.17847,15.03089 5.04588,1.7986 6.67845,1.78708 11.1437,-0.0786 z m 229.41313,11.4938 c -7.1178,-1.27049 -14.3727,-4.49234 -17.5252,-7.78281 C 1164.1842,369.53907 1162,362.94887 1162,356.09678 1162,349.46376 1163.9288,346 1167.6224,346 c 4.1062,0 5.9959,1.62524 9.8008,8.42913 4.8876,8.73976 8.2325,12.50953 13.0354,14.69121 4.9005,2.22595 8.4875,2.34684 13.0516,0.43984 9.3688,-3.91451 9.9761,-18.13822 1.0647,-24.93526 -1.7845,-1.36108 -7.7063,-4.82749 -13.1597,-7.70314 -13.9483,-7.35516 -19.3839,-11.62848 -22.9253,-18.02308 -2.7009,-4.87679 -2.9892,-6.26876 -2.9827,-14.3987 0.01,-10.32274 1.6412,-14.4542 8.1581,-20.63982 5.0008,-4.7466 8.5248,-6.44397 16.3094,-7.85559 12.0574,-2.18643 26.3513,1.18591 31.9229,7.53156 3.6167,4.1192 5.484,10.38558 4.8283,16.20286 -0.5801,5.14729 -2.1562,7.26099 -5.4141,7.26099 -3.9152,0 -5.934,-1.6175 -9.6663,-7.74472 -5.4992,-9.02807 -9.5858,-12.44704 -15.5641,-13.02148 -4.7077,-0.45235 -5.2587,-0.2565 -8.5566,3.04136 -3.0223,3.02234 -3.5248,4.18769 -3.5248,8.1745 0,8.77567 2.7871,11.71267 19.5,20.54857 18.4615,9.76036 24.1232,15.48371 26.5608,26.84978 2.2544,10.51202 -2.2724,23.39789 -10.3965,29.5945 -7.8186,5.96353 -22.2546,8.68621 -34.4827,6.50356 z m -438.56117,-2.03 c -1.4571,-1.14616 -5.87101,-6.65866 -9.80868,-12.25 -15.10311,-21.44584 -31.39783,-44.4794 -36.74253,-51.93775 l -5.56922,-7.77168 -0.29671,24.77168 c -0.34962,29.18891 -0.0652,31.91206 3.84682,36.83473 3.07179,3.86535 3.80897,8.17787 1.74989,10.23695 -0.78239,0.78239 -4.88889,1.2 -11.8,1.2 -6.91111,0 -11.01761,-0.41761 -11.8,-1.2 -2.00007,-2.00007 -1.32385,-6.06355 1.76836,-10.62628 1.61259,-2.37945 3.206,-6.20445 3.54092,-8.5 0.33492,-2.29555 0.46985,-17.93956 0.29983,-34.76448 L 681.5,294.31847 l -3.25,-5.22568 c -6.15542,-9.89732 -4.039,-12.47994 9.78309,-11.93809 7.75361,0.30395 9.12966,0.64467 11.49113,2.8453 1.47549,1.375 12.14377,15.775 23.7073,32 11.56352,16.225 21.4444,29.95 21.95751,30.5 0.57846,0.62006 0.81477,-8.30862 0.62194,-23.5 -0.29628,-23.34287 -0.4162,-24.6653 -2.53898,-28 -1.22541,-1.925 -2.99156,-4.95266 -3.92478,-6.72813 -1.61024,-3.06349 -1.60346,-3.33124 0.133,-5.25 1.61173,-1.78095 3.06245,-2.02187 12.17478,-2.02187 9.01168,0 10.60278,0.25777 12.34501,2 1.1,1.1 2,2.3995 2,2.88779 0,0.48828 -1.6875,3.30078 -3.75,6.25 L 758.5,293.5 758,335.59816 c -0.39964,33.64834 -0.77547,42.42971 -1.87244,43.75 -1.88785,2.27216 -6.32564,2.07047 -9.50713,-0.43209 z m 281.59177,1.11661 c -21.8741,-0.44324 -26.4467,-0.78453 -27.2347,-2.03268 -1.64454,-2.60517 -1.07434,-5.03825 2.2725,-9.6967 l 3.25,-4.52365 0.3024,-32.13983 c 0.1663,-17.6769 0.043,-33.55049 -0.2737,-35.27463 -0.3169,-1.72415 -1.9073,-5.09915 -3.5342,-7.5 -3.41865,-5.0448 -3.74219,-7.87856 -1.1658,-10.2102 C 1003.3405,277.28683 1006,277 1017.1738,277 c 11.8243,0 13.7234,0.22892 15.1712,1.82874 2.4396,2.69574 2.0391,5.25525 -1.595,10.19368 l -3.25,4.41642 -0.5,33.03058 c -0.523,34.5515 -0.1963,41.15934 2.107,42.6179 1.8545,1.17427 13.121,1.15669 16.2299,-0.0253 3.5892,-1.3646 7.1915,-5.63603 11.2226,-13.30708 3.0676,-5.8377 3.9223,-6.75491 6.295,-6.75491 3.7866,0 5.1455,1.70355 5.1453,6.45 -2e-4,4.95074 -2.6039,18.94176 -4.0161,21.58046 -1.3357,2.49579 -4.2576,4.02534 -7.168,3.75222 -1.2736,-0.11953 -14.1452,-0.45703 -28.6035,-0.75 z M 774.75,378.9199 c -2.74575,-1.59925 -2.12762,-6.32596 1.5,-11.47002 l 3.25,-4.60859 0.30521,-31.17064 c 0.32621,-33.31567 -0.10318,-37.57262 -4.35178,-43.14283 -3.01627,-3.95452 -3.26701,-9.02204 -0.51917,-10.49264 C 775.9981,277.46583 782.64797,277 789.71175,277 c 17.79408,0 20.74958,2.34218 14.3051,11.33652 -4.31391,6.02079 -5.02408,11.82994 -4.95724,40.54997 0.0695,29.88233 0.52035,33.60825 4.7848,39.54638 3.60154,5.01506 3.94045,7.54686 1.32685,9.91214 -1.51443,1.37054 -4.13548,1.64976 -15.25,1.62458 -7.38169,-0.0167 -14.20876,-0.48908 -15.17126,-1.04969 z m 295.7875,-0.52527 c -2.0663,-2.06631 -1.3294,-4.30778 3.5248,-10.72126 3.2475,-4.29068 5.5008,-10.12074 14.3517,-37.1316 13.1023,-39.98531 12.9306,-39.2398 10.2495,-44.51928 -1.5856,-3.12205 -1.8349,-4.53143 -1.0296,-5.82097 1.9802,-3.17133 5.5828,-4.32103 12.1159,-3.86659 6.6515,0.46267 10.2283,2.17588 12.8287,6.14459 0.8836,1.34842 7.2044,18.93871 14.0464,39.08955 13.0997,38.58075 14.3157,41.59745 19.2756,47.81843 3.5382,4.4378 3.9802,8.07078 1.1652,9.57732 -2.8035,1.5004 -30.3429,1.35796 -31.8657,-0.16482 -1.8474,-1.84738 -1.4289,-5.66985 0.9932,-9.07134 2.5649,-3.60209 2.656,-7.29582 0.3734,-15.14772 l -1.6375,-5.63265 -15.1151,0.27585 -15.1151,0.27586 -1.4334,4 c -2.3475,6.55085 -2.1467,13.55553 0.4845,16.90528 2.7618,3.51604 2.8969,7.17813 0.3157,8.55954 -1.0638,0.56935 -6.4317,1.03518 -11.9285,1.03518 -7.8421,0 -10.3401,-0.34571 -11.5997,-1.60537 z M 1121,337.34374 c 0,-0.36094 -2.5801,-8.53699 -5.7336,-18.16899 l -5.7336,-17.51274 -4.2717,13.419 c -2.3495,7.38044 -4.9201,15.55649 -5.7125,18.16899 l -1.4408,4.75 h 11.4461 c 6.2954,0 11.4461,-0.29532 11.4461,-0.65626 z"
       id="path1" />
  </g>
</svg>
