<?xml version="1.0" encoding="UTF-8" standalone="no"?>
<!-- Created with Inkscape (http://www.inkscape.org/) -->

<svg
   version="1.1"
   id="svg1"
   width="1408"
   height="768"
   viewBox="0 0 1408 768"
   sodipodi:docname="logo.svg"
   inkscape:version="1.4.3 (0d15f75, 2025-12-25)"
   xmlns:inkscape="http://www.inkscape.org/namespaces/inkscape"
   xmlns:sodipodi="http://sodipodi.sourceforge.net/DTD/sodipodi-0.dtd"
   xmlns="http://www.w3.org/2000/svg"
   xmlns:svg="http://www.w3.org/2000/svg">
  <defs
     id="defs1" />
  <sodipodi:namedview
     id="namedview1"
     pagecolor="#ffffff"
     bordercolor="#000000"
     borderopacity="0.25"
     inkscape:showpageshadow="2"
     inkscape:pageopacity="0.0"
     inkscape:pagecheckerboard="0"
     inkscape:deskcolor="#d1d1d1"
     inkscape:zoom="1.0065104"
     inkscape:cx="704.41397"
     inkscape:cy="384"
     inkscape:window-width="1920"
     inkscape:window-height="991"
     inkscape:window-x="-9"
     inkscape:window-y="-9"
     inkscape:window-maximized="1"
     inkscape:current-layer="g1" />
  <g
     inkscape:groupmode="layer"
     inkscape:label="Image"
     id="g1">
    <path
       style="fill:#000000"
       d="m 401.22967,579.09119 c -5.6534,-0.96782 -9.44363,-3.92754 -11.00535,-8.59388 -2.56997,-7.67893 1.401,-13.15819 12.4386,-17.16312 12.13245,-4.40218 16.32304,-9.26775 20.5278,-23.83419 l 2.30928,-8 v -136 c 0,-144.24198 0.0138,-143.78578 -4.67564,-154.68665 -2.78452,-6.4728 -10.0193,-13.00703 -17.37494,-15.69251 -11.35748,-4.14652 -13.70156,-6.47432 -13.85844,-13.76224 -0.12366,-5.74457 3.75681,-9.84545 10.80971,-11.4237 8.26879,-1.85034 54.6098,-0.71597 61.59931,1.50787 10.46315,3.32905 19.15501,8.62649 27.0943,16.51321 8.52955,8.47309 11.73214,13.70317 93.4088,152.54402 53.59316,91.10217 61.69055,104.78394 62.73216,105.99556 0.47498,0.55251 0.69759,-47.73249 0.50022,-108.5 -0.31819,-97.96519 -0.53106,-110.22053 -2.02148,-116.38009 -3.68737,-15.23909 -9.0187,-21.59809 -22.46638,-26.79706 -6.86699,-2.65482 -9.17658,-4.07316 -10.97268,-6.73839 -4.00206,-5.93867 -2.22711,-13.41425 3.99199,-16.81309 C 617.21433,189.65612 621.25522,189.5 660,189.5 c 38.74478,0 42.78567,0.15612 45.73307,1.76693 4.33708,2.37028 6.63041,6.98643 5.95874,11.99411 -0.73028,5.4447 -3.70525,8.17623 -12.33143,11.32237 -13.21179,4.81861 -19.33713,12.25563 -22.99292,27.91659 -1.77065,7.5853 -1.86746,14.47974 -1.86746,133 0,119.92878 0.0766,125.21994 1.88724,130.42123 2.31827,6.65938 8.58261,13.70746 14.53956,16.35862 9.87235,4.39371 23.83709,1.30884 30.99866,-6.84774 3.95523,-4.50476 6.01117,-8.61119 13.71707,-27.39776 3.48904,-8.50611 8.48431,-19.0248 11.10059,-23.37485 9.10232,-15.1343 23.13279,-27.64944 38.95639,-34.74901 9.94123,-4.46033 21.69078,-7.50558 43.80049,-11.3522 22.55803,-3.92462 27.60059,-5.25512 33.89334,-8.94292 C 868.41196,406.67426 873,398.8865 873,393.30896 c 0,-1.81409 -3.34408,-14.88823 -7.43129,-29.05365 -23.46067,-81.30982 -30.64148,-105.95259 -31.37198,-107.66097 -0.59962,-1.40229 -2.20981,2.8241 -6.09577,16 -4.98744,16.91066 -35.3754,118.64756 -40.59867,135.92169 l -2.42385,8.01602 -6.68517,3.29661 c -9.65066,4.75896 -16.90508,9.60433 -23.20827,15.50128 -3.03942,2.84353 -5.28249,4.49506 -4.98458,3.67006 0.2979,-0.825 13.22958,-43.8 28.73707,-95.5 43.82354,-146.10213 41.31527,-138.60484 48.72611,-145.64398 6.86897,-6.52444 11.61942,-8.34071 21.8364,-8.34885 7.51167,-0.006 9.8141,0.39351 13.92291,2.41574 6.68762,3.29145 11.72686,8.58625 15.42158,16.20367 1.70023,3.50538 10.34195,30.44842 19.20383,59.87342 41.28887,137.09575 68.39818,226.572 72.10868,238 9.48499,29.21285 18.69782,41.79362 34.442,47.03294 7.9537,2.64683 12.0108,5.93257 13.512,10.94308 0.9758,3.25698 0.8665,4.39896 -0.732,7.64847 -1.0341,2.1023 -3.4527,4.73162 -5.379,5.84767 -3.4024,1.97131 -5.0611,2.02784 -59.5,2.02784 -51.65119,0 -56.25107,-0.13721 -59.23307,-1.76693 C 889.2848,575.55677 887,571.3464 887,566.18452 c 0,-5.47855 2.85104,-8.61229 11.62213,-12.77453 9.4588,-4.48859 12.37054,-8.44949 13.12551,-17.85493 0.70116,-8.73491 -0.43239,-13.95156 -10.76803,-49.55506 -4.86976,-16.775 -10.74342,-37.025 -13.05258,-45 -2.30917,-7.975 -4.3532,-14.6783 -4.5423,-14.89621 -0.1891,-0.21792 -2.26553,1.36839 -4.61428,3.52514 -9.47037,8.69621 -16.43773,11.20117 -44.15514,15.87502 -33.46367,5.64281 -45.10671,9.99821 -56.12755,20.99605 -7.88835,7.87189 -12.88893,17.64348 -20.44034,39.94233 -9.91551,29.27987 -17.06942,42.5107 -29.95013,55.39141 -5.05128,5.05129 -8.98916,7.87297 -15.20686,10.89648 -10.64237,5.17511 -17.00637,6.63072 -28.89043,6.60796 -15.80524,-0.0303 -27.30815,-3.44682 -40.07284,-11.90229 -8.03316,-5.32126 -20.6577,-18.35903 -27.54195,-28.44346 C 611.25742,531.48095 577.03094,473.93965 525.9777,387 510.95938,361.425 490.57122,326.775 480.67066,310 470.77011,293.225 460.83148,276.35 458.58483,272.5 l -4.08483,-7 -0.29156,116 c -0.19125,76.09241 0.0719,119.78434 0.76482,127 2.23571,23.28033 6.68483,35.42419 14.88361,40.62481 2.55372,1.61987 6.74527,3.56971 9.31456,4.33297 6.66822,1.98095 8.6782,3.24773 10.87834,6.85604 3.88537,6.37214 1.60096,14.58924 -4.86619,17.50385 -3.20027,1.4423 -8.66946,1.68272 -41.68358,1.83235 -20.9,0.0947 -39.92165,-0.15675 -42.27033,-0.55883 z"
       id="path1" />
  </g>
</svg>
